<svg
    xmlns:dc="http://purl.org/dc/elements/1.1/"
    xmlns:cc="http://creativecommons.org/ns#"
    xmlns:rdf="http://www.w3.org/1999/02/22-rdf-syntax-ns#"
    xmlns:svg="http://www.w3.org/2000/svg"
    xmlns="http://www.w3.org/2000/svg"
    xmlns:sodipodi="http://sodipodi.sourceforge.net/DTD/sodipodi-0.dtd"
    xmlns:inkscape="http://www.inkscape.org/namespaces/inkscape"
    version="1.1"
    x="0px"
    y="0px"
    viewBox="0 0 100 125">
    <g transform="translate(0,-952.36218)"><path
        style="color:white;enable-background:accumulate;"
        d="m 43.843751,958.36219 -3.03125,10.6875 c -2.77851,0.76546 -5.42381,1.85536 -7.875,3.25 l -9.71875,-5.40625 -8.6875,8.6875 5.40625,9.71875 c -1.39465,2.45119 -2.48453,5.09648 -3.25,7.875 l -10.6875,3.03125 0,12.31246 10.6875,3.0313 c 0.76547,2.7785 1.85535,5.4238 3.25,7.875 l -5.40625,9.7187 8.6875,8.6875 9.71875,-5.4062 c 2.45119,1.3946 5.09649,2.4845 7.875,3.25 l 3.03125,10.6875 12.3125,0 3.03125,-10.6875 c 2.77852,-0.7655 5.42381,-1.8554 7.875,-3.25 l 9.71875,5.4062 8.6875,-8.6875 -5.40625,-9.7187 c 1.39463,-2.4512 2.48454,-5.0965 3.25,-7.875 l 10.687498,-3.0313 0,-12.31246 -10.687498,-3.03125 c -0.76546,-2.77852 -1.85537,-5.42381 -3.25,-7.875 l 5.40625,-9.71875 -8.6875,-8.6875 -9.71875,5.40625 c -2.45119,-1.39464 -5.09648,-2.48454 -7.875,-3.25 l -3.03125,-10.6875 -12.3125,0 z m 6.15625,21 c 12.66702,0 23,10.33307 23,23.00001 0,12.6669 -10.33298,23 -23,23 -12.66702,0 -23,-10.3331 -23,-23 0,-12.66694 10.33298,-23.00001 23,-23.00001 z m 0,6 c -9.42434,0 -17,7.57574 -17,17.00001 0,9.4242 7.57566,17 17,17 9.42434,0 17,-7.5758 17,-17 0,-9.42427 -7.57566,-17.00001 -17,-17.00001 z"
        fill="white"
        stroke="none"
        marker="none"
        visibility="visible"
        display="inline"
        overflow="visible"/></g>
    <text x="0" y="115" fill="#000000" font-size="5px" font-weight="bold" font-family="'Helvetica Neue', Helvetica, Arial-Unicode, Arial, Sans-serif">Created by il Capitano</text>
    <text x="0" y="120" fill="#000000" font-size="5px" font-weight="bold" font-family="'Helvetica Neue', Helvetica, Arial-Unicode, Arial, Sans-serif">from the Noun Project</text>
</svg>
