<svg xmlns="http://www.w3.org/2000/svg" viewBox="0 0 32 40"><path fill="#f3be7a" style="line-height:normal;text-indent:0;text-align:start;text-decoration-line:none;text-decoration-style:solid;text-decoration-color:#f3be7a;text-transform:none;block-progression:tb;white-space:normal;isolation:auto;mix-blend-mode:normal;solid-color:#f3be7a;solid-opacity:1" d="M6.08 1.004c-1.132 0-2.08.892-2.08 2.01v25.98c0 1.118.948 2.01 2.08 2.01h18.836c1.132 0 2.08-.892 2.08-2.01v-.75c0-.014.004-.028.004-.043v-5.668a.532.532 0 00-.004-.068V7.512a.511.511 0 00-.158-.371L20.56 1.146a.511.511 0 00-.354-.142H6.08zm0 1.023h13.922l.041.04v3.937c0 .44.014.877.217 1.285.202.409.686.715 1.236.715h4.479V22H5.023V3.014c0-.543.45-.987 1.057-.987zm14.963.994l4.17 3.983h-3.717c-.281 0-.273-.026-.34-.16-.066-.134-.113-.45-.113-.84V3.02zm-7.535 6.981v.002c-1.1 0-2 .9-2 2v1c0 .563-.438 1-1 1a.5.5 0 00-.498.406.5.5 0 00.148.455.5.5 0 00.078.06.5.5 0 00.139.06.5.5 0 00.098.017.5.5 0 00.035 0c.562 0 1 .437 1 1v1c0 1.1.9 2 2 2a.5.5 0 100-1c-.563 0-1-.437-1-1v-1a1.99 1.99 0 00-.694-1.5 1.99 1.99 0 00.694-1.5v-1c0-.563.437-1 1-1a.5.5 0 100-1zm3.933.002a.5.5 0 00.051 1c.563 0 1 .437 1 1v1c0 .599.273 1.132.694 1.5-.42.367-.694.902-.694 1.5v1c0 .563-.437 1-1 1a.5.5 0 100 1c1.1 0 2-.9 2-2v-1c0-.563.438-1 1-1a.5.5 0 00.324-.113.5.5 0 00.038-.036.5.5 0 00-.362-.851c-.562 0-1-.437-1-1v-1c0-1.1-.9-2-2-2a.5.5 0 00-.05 0zM15.5 12a.5.5 0 00-.5.5.5.5 0 00.5.5.5.5 0 00.5-.5.5.5 0 00-.5-.5zm-.008 1.994A.5.5 0 0015 14.5v3a.5.5 0 101 0v-3a.5.5 0 00-.508-.506zm-10.43 9.07h20.875v5.137c0 1.005-.682 1.736-1.462 1.736H6.525c-.78 0-1.463-.73-1.463-1.736v-5.137zM21.52 24v.006a.5.5 0 00-.051 0 .5.5 0 00-.469.54v3.964a.5.5 0 101 0v-2.5l2.082 2.78a.5.5 0 00.002 0l.014.017a.5.5 0 00.902-.301v-3.988a.5.5 0 00-.508-.508.5.5 0 00-.492.508v2.49l-2.098-2.801A.5.5 0 0021.52 24zm-13.026.016v.002a.5.5 0 00-.492.507v2.993c0 .285-.214.5-.5.5a.488.488 0 01-.5-.5.5.5 0 00-.508-.506.5.5 0 00-.492.506c0 .822.678 1.5 1.5 1.5.774 0 1.411-.604 1.484-1.36a.5.5 0 00.016-.133v-3.002a.5.5 0 00-.508-.507zm2.95.002a.5.5 0 00-.063.011c-.77.06-1.387.705-1.387 1.489 0 .79.628 1.44 1.406 1.49a.5.5 0 00.094.01h1c.286 0 .5.214.5.5 0 .285-.214.5-.5.5h-2a.5.5 0 100 1h2a.5.5 0 00.104-.012 1.503 1.503 0 001.396-1.488c0-.786-.62-1.434-1.392-1.49a.5.5 0 00-.108-.01h-.965a.5.5 0 00-.035 0 .488.488 0 01-.5-.5c0-.286.214-.5.5-.5h2a.5.5 0 100-1H11.53a.5.5 0 00-.035 0 .5.5 0 00-.05 0zm6.058 0a2.508 2.508 0 00-2.5 2.5c0 1.374 1.125 2.5 2.5 2.5s2.5-1.126 2.5-2.5c0-1.375-1.125-2.5-2.5-2.5zm0 1c.834 0 1.5.665 1.5 1.5 0 .834-.666 1.5-1.5 1.5s-1.5-.666-1.5-1.5c0-.835.666-1.5 1.5-1.5z" color="#f3be7a" font-weight="400" font-family="sans-serif" overflow="visible" fill-rule="evenodd"/><text y="47" font-size="5" font-weight="bold" font-family="'Helvetica Neue', Helvetica, Arial-Unicode, Arial, Sans-serif">Created by Chameleon Design</text><text y="52" font-size="5" font-weight="bold" font-family="'Helvetica Neue', Helvetica, Arial-Unicode, Arial, Sans-serif">from the Noun Project</text></svg>