<svg viewBox="0 0 768 262" xmlns="http://www.w3.org/2000/svg" xml:space="preserve" style="fill-rule:evenodd;clip-rule:evenodd;stroke-linejoin:round;stroke-miterlimit:1.41421"><path d="M152 81h184.779V67L368 95l-31.221 28v-14H152V81Z" style="fill:#81d31a;fill-rule:nonzero" transform="translate(10.886 9.866) scale(.78247)"/><path d="M622 81.25h133.221V67L787 95.5 755.221 124v-14.25H622v-28.5Z" style="fill:#00b0f0;fill-rule:nonzero" transform="translate(10.886 9.866) scale(.78247)"/><path d="m588.294 148 41.315 31h-21.795c14.433 54.748 64.852 93 122.583 93h-31c-57.73 0-108.15-38.252-122.582-93H555.02l33.274-31Z" style="fill:#ffc000;fill-rule:nonzero" transform="translate(10.886 9.866) scale(.78247)"/><path d="M714.897 271.067C778.343 263.401 826 210.612 826 148h31c0 68.483-56.682 124-126.603 124-5.181 0-10.357-.312-15.5-.933Z" style="fill:#cd9a00;fill-rule:nonzero" transform="translate(10.886 9.866) scale(.78247)"/><path d="M427 116v81.232c0 35.277-28.598 63.875-63.875 63.875H144.5V276L108 247.653l36.5-28.348v14.893h218.625c20.416 0 36.966-16.55 36.966-36.966V116H427Z" style="fill:#ffc000;fill-rule:nonzero" transform="translate(10.886 9.866) scale(.78247)"/><path d="M457 10.5a9.5 9.5 0 0 1 9.5-9.5h70a9.5 9.5 0 0 1 9.5 9.5v38a9.5 9.5 0 0 1-9.5 9.5h-70a9.5 9.5 0 0 1-9.5-9.5v-38Z" style="fill:#9a2527;fill-rule:nonzero" transform="translate(10.886 9.866) scale(.78247)"/><path d="M371 10c0-5.523 4.477-10 10-10h61c5.523 0 10 4.477 10 10v40c0 5.523-4.477 10-10 10h-61c-5.523 0-10-4.477-10-10V10Z" style="fill:#a6a6a6;fill-rule:nonzero" transform="translate(10.886 9.866) scale(.78247)"/><path d="M551 9.5a9.5 9.5 0 0 1 9.5-9.5h52a9.5 9.5 0 0 1 9.5 9.5v38a9.5 9.5 0 0 1-9.5 9.5h-52a9.5 9.5 0 0 1-9.5-9.5v-38Z" style="fill:#9a2527;fill-rule:nonzero" transform="translate(10.886 9.866) scale(.78247)"/><path style="fill:#df2e2f;fill-rule:nonzero" d="M371 42h251v106H371z" transform="translate(10.886 9.866) scale(.78247)"/><text x="59.321" y="107.159" style="font-family:'ArialMT','Arial',sans-serif;font-size:36px;fill:#a7ea52" transform="translate(10.886 9.866) scale(.78247)">I</text><text x="69.523" y="107.159" style="font-family:'ArialMT','Arial',sans-serif;font-size:36px;fill:#a7ea52" transform="translate(10.886 9.866) scale(.78247)">n</text><text x="89.695" y="107.159" style="font-family:'ArialMT','Arial',sans-serif;font-size:36px;fill:#a7ea52" transform="translate(10.886 9.866) scale(.78247)">p</text><text x="109.516" y="107.159" style="font-family:'ArialMT','Arial',sans-serif;font-size:36px;fill:#a7ea52" transform="translate(10.886 9.866) scale(.78247)">u<tspan x="129.738" y="107.159">t</tspan></text><text x="794.64" y="87.768" style="font-family:'ArialMT','Arial',sans-serif;font-size:36px;fill:#5eccf3" transform="translate(10.886 9.866) scale(.78247)">D</text><text x="821.038" y="87.768" style="font-family:'ArialMT','Arial',sans-serif;font-size:36px;fill:#5eccf3" transform="translate(10.886 9.866) scale(.78247)">O</text><text x="849.29" y="87.768" style="font-family:'ArialMT','Arial',sans-serif;font-size:36px;fill:#5eccf3" transform="translate(10.886 9.866) scale(.78247)">M</text><text x="878.828" y="87.768" style="font-family:'ArialMT','Arial',sans-serif;font-size:36px;fill:#5eccf3" transform="translate(10.886 9.866) scale(.78247)">/</text><text x="794.64" y="130.768" style="font-family:'ArialMT','Arial',sans-serif;font-size:36px;fill:#5eccf3" transform="translate(10.886 9.866) scale(.78247)">H</text><text x="821.488" y="130.768" style="font-family:'ArialMT','Arial',sans-serif;font-size:36px;fill:#5eccf3" transform="translate(10.886 9.866) scale(.78247)">T</text><text x="842.978" y="130.768" style="font-family:'ArialMT','Arial',sans-serif;font-size:36px;fill:#5eccf3" transform="translate(10.886 9.866) scale(.78247)">M</text><text x="872.567" y="130.768" style="font-family:'ArialMT','Arial',sans-serif;font-size:36px;fill:#5eccf3" transform="translate(10.886 9.866) scale(.78247)">L</text><text x="21.538" y="256.769" style="font-family:'ArialMT','Arial',sans-serif;font-size:36px;fill:#ffc000" transform="translate(116.639 45.215) scale(.78247)">C</text><text x="47.086" y="256.769" style="font-family:'ArialMT','Arial',sans-serif;font-size:36px;fill:#ffc000" transform="translate(116.639 45.215) scale(.78247)">u</text><text x="67.307" y="256.769" style="font-family:'ArialMT','Arial',sans-serif;font-size:36px;fill:#ffc000" transform="translate(116.639 45.215) scale(.78247)">s</text><text x="85.757" y="256.769" style="font-family:'ArialMT','Arial',sans-serif;font-size:36px;fill:#ffc000" transform="translate(116.639 45.215) scale(.78247)">t</text><text x="96.309" y="256.769" style="font-family:'ArialMT','Arial',sans-serif;font-size:36px;fill:#ffc000" transform="translate(116.639 45.215) scale(.78247)">o</text><text x="116.781" y="256.769" style="font-family:'ArialMT','Arial',sans-serif;font-size:36px;fill:#ffc000" transform="translate(116.639 45.215) scale(.78247)">m</text><text x="156.321" y="256.769" style="font-family:'ArialMT','Arial',sans-serif;font-size:36px;fill:#ffc000" transform="translate(116.639 45.215) scale(.78247)">E</text><text x="180.333" y="256.769" style="font-family:'ArialMT','Arial',sans-serif;font-size:36px;fill:#ffc000" transform="translate(116.639 45.215) scale(.78247)">v</text><text x="198.083" y="256.769" style="font-family:'ArialMT','Arial',sans-serif;font-size:36px;fill:#ffc000" transform="translate(116.639 45.215) scale(.78247)">e</text><text x="218.104" y="256.769" style="font-family:'ArialMT','Arial',sans-serif;font-size:36px;fill:#ffc000" transform="translate(116.639 45.215) scale(.78247)">n</text><text x="238.226" y="256.769" style="font-family:'ArialMT','Arial',sans-serif;font-size:36px;fill:#ffc000" transform="translate(116.639 45.215) scale(.78247)">t</text><text x="248.428" y="256.769" style="font-family:'ArialMT','Arial',sans-serif;font-size:36px;fill:#ffc000" transform="translate(116.639 45.215) scale(.78247)">s</text><text x="604.892" y="309.269" style="font-family:'ArialMT','Arial',sans-serif;font-size:36px;fill:#ffc000" transform="translate(10.886 9.866) scale(.78247)">D</text><text x="631.291" y="309.269" style="font-family:'ArialMT','Arial',sans-serif;font-size:36px;fill:#ffc000" transform="translate(10.886 9.866) scale(.78247)">O</text><text x="659.542" y="309.269" style="font-family:'ArialMT','Arial',sans-serif;font-size:36px;fill:#ffc000" transform="translate(10.886 9.866) scale(.78247)">M</text><text x="699.178" y="309.269" style="font-family:'ArialMT','Arial',sans-serif;font-size:36px;fill:#ffc000" transform="translate(10.886 9.866) scale(.78247)">E</text><text x="723.19" y="309.269" style="font-family:'ArialMT','Arial',sans-serif;font-size:36px;fill:#ffc000" transform="translate(10.886 9.866) scale(.78247)">v</text><text x="740.94" y="309.269" style="font-family:'ArialMT','Arial',sans-serif;font-size:36px;fill:#ffc000" transform="translate(10.886 9.866) scale(.78247)">en</text><text x="780.983" y="309.269" style="font-family:'ArialMT','Arial',sans-serif;font-size:36px;fill:#ffc000" transform="translate(10.886 9.866) scale(.78247)">t</text><text x="791.335" y="309.269" style="font-family:'ArialMT','Arial',sans-serif;font-size:36px;fill:#ffc000" transform="translate(10.886 9.866) scale(.78247)">s</text><text x="396.157" y="25.805" style="font-family:'ArialMT','Arial',sans-serif;font-size:20px;fill:#fff" transform="translate(10.886 9.866) scale(.78247)">A</text><text x="409.496" y="25.805" style="font-family:'ArialMT','Arial',sans-serif;font-size:20px;fill:#fff" transform="translate(10.886 9.866) scale(.78247)">P</text><text x="423.186" y="25.805" style="font-family:'ArialMT','Arial',sans-serif;font-size:20px;fill:#fff" transform="translate(10.886 9.866) scale(.78247)">I</text><text x="396.157" y="25.805" style="font-family:'ArialMT','Arial',sans-serif;font-size:20px;fill:#fff" transform="translate(75.135 10.019) scale(.78247)">State</text><text x="396.157" y="25.805" style="font-family:'ArialMT','Arial',sans-serif;font-size:20px;fill:#fff" transform="translate(138.925 9.418) scale(.78247)">Styles</text><text x="311.649" y="161.723" style="font-family:'ArialMT','Arial',sans-serif;font-size:32px;fill:#fff" transform="translate(75.519 -35.863) scale(.78247)">UI Component</text></svg>