<svg xmlns="http://www.w3.org/2000/svg" viewBox="0 0 320 400"><path fill="#f3be7a" d="M60.8 10C49.5 10 40 19 40 30.1V290c0 11.2 9.5 20.1 20.8 20.1h188.4c11.3 0 20.8-8.9 20.8-20v-64.7a5.3 5.3 0 0 0 0-.7V75.1a5.1 5.1 0 0 0-1.6-3.7l-62.8-60a5.1 5.1 0 0 0-3.5-1.4H60.8zm0 10.3H200l.4.4V60c0 4.4.2 8.8 2.2 12.9 2 4 6.9 7.1 12.4 7.1h44.7v140H50.3V30.1c0-5.4 4.5-9.8 10.6-9.8zm149.6 10L252.1 70H215c-2.9 0-2.8-.2-3.4-1.6-.7-1.3-1.2-4.5-1.2-8.4V30.2zM135.1 100c-11 0-20 9-20 20v10c0 5.7-4.4 10-10 10a5 5 0 0 0-5 4.1 5 5 0 0 0 1.5 4.5 5 5 0 0 0 .8.7 5 5 0 0 0 1.4.5 5 5 0 0 0 1 .2 5 5 0 0 0 .3 0c5.6 0 10 4.4 10 10v10c0 11 9 20 20 20a5 5 0 1 0 0-10c-5.6 0-10-4.4-10-10v-10a19.9 19.9 0 0 0-7-15 19.9 19.9 0 0 0 7-15v-10c0-5.6 4.4-10 10-10a5 5 0 1 0 0-10zm39.3 0a5 5 0 0 0 .5 10c5.7 0 10 4.4 10 10v10c0 6 2.8 11.4 7 15a20 20 0 0 0-7 15v10c0 5.7-4.3 10-10 10a5 5 0 1 0 0 10c11 0 20-9 20-20v-10c0-5.6 4.4-10 10-10a5 5 0 0 0 3.3-1 5 5 0 0 0 .3-.5 5 5 0 0 0-3.6-8.5c-5.6 0-10-4.3-10-10v-10c0-11-9-20-20-20a5 5 0 0 0-.5 0zM155 120a5 5 0 0 0-5 5 5 5 0 0 0 5 5 5 5 0 0 0 5-5 5 5 0 0 0-5-5zm0 20a5 5 0 0 0-5 5v30a5 5 0 1 0 10 0v-30a5 5 0 0 0-5-5zM50.5 230.5h208.8V282c0 10-6.8 17.4-14.6 17.4H65.2c-7.8 0-14.6-7.3-14.6-17.4v-51.4zm164.6 9.4a5 5 0 0 0-.5 0 5 5 0 0 0-4.7 5.5V285a5 5 0 1 0 10 0v-25l20.8 27.8.2.2a5 5 0 0 0 9-3v-40a5 5 0 0 0-5-5 5 5 0 0 0-5 5v25l-21-28a5 5 0 0 0-3.8-2.1zm-130.3.2a5 5 0 0 0-4.9 5v30c0 2.8-2.1 5-5 5a4.9 4.9 0 0 1-5-5 5 5 0 0 0-5-5 5 5 0 0 0-5 5 15 15 0 0 0 15 15A15 15 0 0 0 90 276.6a5 5 0 0 0 .1-1.4v-30a5 5 0 0 0-5-5zm29.5 0a5 5 0 0 0-.6 0 15 15 0 0 0-13.9 15A15 15 0 0 0 114 270a5 5 0 0 0 1 0h10a5 5 0 0 1 5 5c0 3-2.2 5-5 5h-20a5 5 0 1 0 0 10h20a5 5 0 0 0 1 0 15 15 0 0 0 14-15 15 15 0 0 0-14-14.8 5 5 0 0 0-1-.1h-9.7a5 5 0 0 0-.4 0 4.9 4.9 0 0 1-5-5c0-2.9 2.2-5 5-5h20a5 5 0 1 0 0-10h-19.6a5 5 0 0 0-.4 0 5 5 0 0 0-.5 0zm60.6 0a25 25 0 0 0-25 25c0 13.7 11.3 25 25 25s25-11.3 25-25a25 25 0 0 0-25-25zm0 10a15 15 0 0 1 15 15c0 8.3-6.6 15-15 15s-15-6.7-15-15a15 15 0 0 1 15-15z"/></svg>