<svg xmlns="http://www.w3.org/2000/svg" viewBox="0 0 2000 618"><path fill="#2a213b" d="M560 375c0-27-2-53-7-76-9-45-32-79-72-97-66-28-142-12-202 26-33-31-75-40-114-40-55-1-111 6-164 22v393h94V275c39-6 102-16 121 22 11 19 16 50 16 92v214h94V378c-1-29-2-63-11-88 40-22 108-34 133 7 10 19 16 50 16 92v214h96zm91-95c34-10 69-16 104-16 56-1 87 33 84 80v16c-45-8-84-15-134-2-39 9-73 27-91 61-18 30-19 85-2 120 18 36 43 51 85 63 56 15 160 2 232-11V345c-1-81-24-121-86-147-59-20-141-13-204 6zm65 245c-31-19-27-79 8-91 38-16 82-13 117-5v104c-39 4-93 11-125-8zm529-322c-83-27-175-13-247 14v387h94V278c50-12 88-10 137 4zm203 175c57-59 113-120 168-181h-111c-46 55-96 107-145 159V0l-94 16v587h94V417c60 48 121 122 157 187h109c-45-88-135-190-178-226zm535-66c-18-50-54-90-102-110-51-21-109-20-157 0-49 20-86 60-102 110-19 57-19 118 0 175 17 51 55 93 105 115a189 189 0 0 0 155-3c53-23 84-64 102-112 19-57 19-118-1-175zm-108 185c-37 51-113 44-146 0-32-47-37-139 0-193 37-51 118-43 146 0 32 41 37 139 0 193z"/></svg>