<svg viewBox="0 0 768 262" xmlns="http://www.w3.org/2000/svg" fill-rule="evenodd" clip-rule="evenodd" stroke-linejoin="round" stroke-miterlimit="1.414"><path d="M129.821 73.246h144.584V62.29l24.43 21.91-24.43 21.908V95.155H129.821v-21.91z" fill="#81d31a" fill-rule="nonzero"/><path d="M497.581 73.441h104.241v-11.15l24.867 22.3-24.867 22.3v-11.15h-104.24v-22.3z" fill="#00b0f0" fill-rule="nonzero"/><path d="M471.207 125.671l32.328 24.257h-17.054c11.294 42.838 50.745 72.77 95.917 72.77h-24.256c-45.172 0-84.624-29.932-95.917-72.77h-17.053l26.035-24.257z" fill="#ffc000" fill-rule="nonzero"/><path d="M570.27 221.967c49.645-5.998 86.935-47.304 86.935-96.296h24.256c0 53.586-44.352 97.026-99.063 97.026-4.053 0-8.104-.244-12.128-.73z" fill="#cd9a00" fill-rule="nonzero"/><path d="M345 100.632v63.562c0 27.603-22.377 49.98-49.98 49.98H123.953v11.653l-28.56-22.18 28.56-22.182v11.653H295.02c15.975 0 28.925-12.95 28.925-28.924v-63.562H345z" fill="#ffc000" fill-rule="nonzero"/><path d="M368.474 18.082a7.433 7.433 0 017.434-7.434h54.772a7.433 7.433 0 017.434 7.434v29.734a7.433 7.433 0 01-7.434 7.433h-54.772a7.433 7.433 0 01-7.434-7.433V18.082z" fill="#9a2527" fill-rule="nonzero"/><path d="M301.182 17.69a7.825 7.825 0 017.825-7.824h47.73a7.825 7.825 0 017.825 7.825v31.298a7.825 7.825 0 01-7.825 7.825h-47.73a7.825 7.825 0 01-7.825-7.825V17.691z" fill="#a6a6a6" fill-rule="nonzero"/><path d="M442.026 17.3a7.433 7.433 0 017.434-7.434h40.688a7.433 7.433 0 017.433 7.433v29.734a7.433 7.433 0 01-7.433 7.434H449.46a7.433 7.433 0 01-7.434-7.434V17.3z" fill="#9a2527" fill-rule="nonzero"/><path fill="#df2e2f" fill-rule="nonzero" d="M301.182 42.73h196.4v82.941h-196.4z"/><g font-family="'ArialMT','Arial',sans-serif" font-size="36" fill="#a7ea52"><text x="59.321" y="107.159" transform="translate(10.886 9.866) scale(.78247)">I</text><text x="69.523" y="107.159" transform="translate(10.886 9.866) scale(.78247)">n</text><text x="89.695" y="107.159" transform="translate(10.886 9.866) scale(.78247)">p</text><text x="109.516" y="107.159" transform="translate(10.886 9.866) scale(.78247)">u<tspan x="129.738" y="107.159">t</tspan></text></g><g font-family="'ArialMT','Arial',sans-serif" font-size="36" fill="#5eccf3"><text x="794.64" y="87.768" transform="translate(10.886 9.866) scale(.78247)">D</text><text x="821.038" y="87.768" transform="translate(10.886 9.866) scale(.78247)">O</text><text x="849.29" y="87.768" transform="translate(10.886 9.866) scale(.78247)">M</text><text x="878.828" y="87.768" transform="translate(10.886 9.866) scale(.78247)">/</text></g><g font-family="'ArialMT','Arial',sans-serif" font-size="36" fill="#5eccf3"><text x="794.64" y="130.768" transform="translate(10.886 9.866) scale(.78247)">H</text><text x="821.488" y="130.768" transform="translate(10.886 9.866) scale(.78247)">T</text><text x="842.978" y="130.768" transform="translate(10.886 9.866) scale(.78247)">M</text><text x="872.567" y="130.768" transform="translate(10.886 9.866) scale(.78247)">L</text></g><g font-family="'ArialMT','Arial',sans-serif" font-size="36" fill="#ffc000"><text x="21.538" y="256.769" transform="translate(116.639 45.215) scale(.78247)">C</text><text x="47.086" y="256.769" transform="translate(116.639 45.215) scale(.78247)">u</text><text x="67.307" y="256.769" transform="translate(116.639 45.215) scale(.78247)">s</text><text x="85.757" y="256.769" transform="translate(116.639 45.215) scale(.78247)">t</text><text x="96.309" y="256.769" transform="translate(116.639 45.215) scale(.78247)">o</text><text x="116.781" y="256.769" transform="translate(116.639 45.215) scale(.78247)">m</text><text x="156.321" y="256.769" transform="translate(116.639 45.215) scale(.78247)">E</text><text x="180.333" y="256.769" transform="translate(116.639 45.215) scale(.78247)">v</text><text x="198.083" y="256.769" transform="translate(116.639 45.215) scale(.78247)">e</text><text x="218.104" y="256.769" transform="translate(116.639 45.215) scale(.78247)">n</text><text x="238.226" y="256.769" transform="translate(116.639 45.215) scale(.78247)">t</text><text x="248.428" y="256.769" transform="translate(116.639 45.215) scale(.78247)">s</text></g><g font-family="'ArialMT','Arial',sans-serif" font-size="36" fill="#ffc000"><text x="604.892" y="309.269" transform="translate(10.886 9.866) scale(.78247)">D</text><text x="631.291" y="309.269" transform="translate(10.886 9.866) scale(.78247)">O</text><text x="659.542" y="309.269" transform="translate(10.886 9.866) scale(.78247)">M</text><text x="699.178" y="309.269" transform="translate(10.886 9.866) scale(.78247)">E</text><text x="723.19" y="309.269" transform="translate(10.886 9.866) scale(.78247)">v</text><text x="740.94" y="309.269" transform="translate(10.886 9.866) scale(.78247)">en</text><text x="780.983" y="309.269" transform="translate(10.886 9.866) scale(.78247)">t</text><text x="791.335" y="309.269" transform="translate(10.886 9.866) scale(.78247)">s</text></g><g font-family="'ArialMT','Arial',sans-serif" font-size="20" fill="#fff"><text x="396.157" y="25.805" transform="translate(10.886 9.866) scale(.78247)">A</text><text x="409.496" y="25.805" transform="translate(10.886 9.866) scale(.78247)">P</text><text x="423.186" y="25.805" transform="translate(10.886 9.866) scale(.78247)">I</text></g><text x="396.157" y="25.805" font-family="'ArialMT','Arial',sans-serif" font-size="20" fill="#fff" transform="translate(75.135 10.019) scale(.78247)">State</text><text x="396.157" y="25.805" font-family="'ArialMT','Arial',sans-serif" font-size="20" fill="#fff" transform="translate(138.925 9.418) scale(.78247)">Styles</text><text x="311.649" y="161.723" font-family="'ArialMT','Arial',sans-serif" font-size="32" fill="#fff" transform="translate(75.519 -35.863) scale(.78247)">UI Component</text></svg>