<svg xmlns="http://www.w3.org/2000/svg" viewBox="0 0 451.311 451.31"><path d="M451.311 189.91v71.5c-103.392 0-135.356 21.887-169.208 45.052-32.521 22.266-66.15 45.282-148.555 45.282v-.509c-3.904.337-6.744.503-6.744.503l-28.877.082 22.438 56.803a4.553 4.553 0 01-1.49 5.309 4.526 4.526 0 01-2.743.91 4.556 4.556 0 01-2.772-.935L1.782 328.119A4.562 4.562 0 010 324.506c0-1.412.662-2.736 1.782-3.605l111.586-85.794a4.527 4.527 0 015.512-.013 4.53 4.53 0 011.49 5.296l-22.438 56.809h40.22c61.959-.744 84.713-16.201 113.185-35.684 18.088-12.377 37.368-25.558 66.047-35.854-28.679-10.311-47.959-23.483-66.047-35.86-28.472-19.488-51.225-34.941-113.185-35.687h-40.22l22.438 56.806a4.546 4.546 0 01-1.49 5.302 4.549 4.549 0 01-5.512-.021L1.782 130.412A4.556 4.556 0 010 126.806c0-1.418.662-2.748 1.782-3.608l111.586-85.789a4.567 4.567 0 015.512-.026 4.545 4.545 0 011.49 5.308l-22.438 56.8 28.877.086s2.846.156 6.744.502v-.509c82.405 0 116.034 23.017 148.555 45.279 33.846 23.173 65.811 45.061 169.203 45.061z"/></svg>